<svg width="170" height="17" viewBox="0 0 170 17" fill="none" xmlns="http://www.w3.org/2000/svg">
<path d="M5.74922 0.519999C7.94122 0.519999 9.62122 1.144 10.7892 2.392C11.9572 3.64 12.5412 5.432 12.5412 7.768C12.5412 10.472 11.9092 12.544 10.6452 13.984C9.38122 15.424 7.56522 16.144 5.19722 16.144C4.54122 16.144 3.74122 16.128 2.79722 16.096C1.86922 16.08 1.00522 16.048 0.205219 16H0.181219L0.301219 11.368L0.181219 0.615999H0.205219L5.74922 0.519999ZM5.50922 14.536C7.14122 14.536 8.38922 14.008 9.25322 12.952C10.1332 11.88 10.5732 10.288 10.5732 8.176C10.5732 4.144 8.91722 2.128 5.60522 2.128C4.59722 2.128 3.43722 2.16 2.12522 2.224L2.02922 11.2L2.10122 14.392C2.59722 14.44 3.18922 14.48 3.87722 14.512C4.58122 14.528 5.12522 14.536 5.50922 14.536ZM21.1208 11.176C22.0968 12.664 23.1768 14.128 24.3608 15.568L24.3368 15.808C23.6648 16.016 23.1128 16.136 22.6808 16.168L22.3688 15.976C21.1528 14.136 20.2328 12.688 19.6088 11.632L17.3528 11.656V12.256L17.4008 16H15.6248L15.6968 12.4L15.6248 4.048L19.7048 4.024C20.9688 4.024 21.9368 4.32 22.6088 4.912C23.2968 5.504 23.6408 6.36 23.6408 7.48C23.6408 8.296 23.4168 9.024 22.9688 9.664C22.5368 10.304 21.9208 10.808 21.1208 11.176ZM17.3768 10.168L19.6328 10.24C21.0568 9.84 21.7688 8.968 21.7688 7.624C21.7688 6.92 21.5608 6.392 21.1448 6.04C20.7288 5.688 20.0968 5.496 19.2488 5.464L17.4008 5.488L17.3768 10.168ZM29.2591 12.256L29.3071 16H27.5311L27.6031 12.4L27.5311 4.048H29.3311L29.2591 12.256ZM43.654 12.424L43.678 16H41.758L35.47 6.88H35.35L35.326 12.016L35.374 16H33.742L33.814 12.472L33.766 4.048H35.662L41.95 13.168H42.118L42.07 4.12L43.726 4L43.654 12.424ZM51.9269 9.64C53.6229 11.72 55.4229 13.704 57.3269 15.592L57.2789 15.856C56.7829 16.016 56.2069 16.136 55.5509 16.216L55.2629 16.096C53.2149 13.792 51.4469 11.68 49.9589 9.76V9.616L54.0869 5.104L54.8789 4.048L57.0149 4.024L51.9269 9.64ZM49.7669 12.256L49.8149 16H48.0389L48.1109 12.4L48.0389 4.048H49.8389L49.7669 12.256ZM71.0615 14.464L71.2055 14.608L71.0375 16H63.7655L63.8375 12.4L63.7655 4.048H71.0855L71.2055 4.192L71.0615 5.584L68.0375 5.488L65.5415 5.512L65.5175 9.136L67.8935 9.16L69.9815 9.088L70.1015 9.256L69.9575 10.672L67.7495 10.6L65.5175 10.624L65.4935 12.256L65.5175 14.536L67.8695 14.56L71.0615 14.464ZM79.3552 9.76L83.6512 16H81.4912L80.9392 14.968L78.1552 11.152L75.2512 15.064L74.7232 16H72.8272L77.0992 10L72.9472 4.048H75.1792L75.6832 5.056L78.2992 8.632L80.9152 5.032L81.4192 4.048H83.3632L79.3552 9.76ZM90.7439 4.024C92.0079 4.024 92.9759 4.328 93.6479 4.936C94.3359 5.544 94.6799 6.424 94.6799 7.576C94.6799 8.92 94.2479 9.976 93.3839 10.744C92.5359 11.496 91.3599 11.872 89.8559 11.872H88.3919V12.256L88.4399 16H86.6639L86.7359 12.4L86.6639 4.048L90.7439 4.024ZM90.4319 10.48C92.0159 10.208 92.8079 9.288 92.8079 7.72C92.8079 6.968 92.5919 6.408 92.1599 6.04C91.7439 5.672 91.1119 5.472 90.2639 5.44L88.4399 5.464L88.4159 10.432L90.4319 10.48ZM105.14 14.464L105.284 14.608L105.116 16H97.8436L97.9156 12.4L97.8436 4.048H105.164L105.284 4.192L105.14 5.584L102.116 5.488L99.6196 5.512L99.5956 9.136L101.972 9.16L104.06 9.088L104.18 9.256L104.036 10.672L101.828 10.6L99.5956 10.624L99.5716 12.256L99.5956 14.536L101.948 14.56L105.14 14.464ZM113.769 11.176C114.745 12.664 115.825 14.128 117.009 15.568L116.985 15.808C116.313 16.016 115.761 16.136 115.329 16.168L115.017 15.976C113.801 14.136 112.881 12.688 112.257 11.632L110.001 11.656V12.256L110.049 16H108.273L108.345 12.4L108.273 4.048L112.353 4.024C113.617 4.024 114.585 4.32 115.257 4.912C115.945 5.504 116.289 6.36 116.289 7.48C116.289 8.296 116.065 9.024 115.617 9.664C115.185 10.304 114.569 10.808 113.769 11.176ZM110.025 10.168L112.281 10.24C113.705 9.84 114.417 8.968 114.417 7.624C114.417 6.92 114.209 6.392 113.793 6.04C113.377 5.688 112.745 5.496 111.897 5.464L110.049 5.488L110.025 10.168ZM121.908 12.256L121.956 16H120.18L120.252 12.4L120.18 4.048H121.98L121.908 12.256ZM133.686 14.464L133.83 14.608L133.662 16H126.39L126.462 12.4L126.39 4.048H133.71L133.83 4.192L133.686 5.584L130.662 5.488L128.166 5.512L128.142 9.136L130.518 9.16L132.606 9.088L132.726 9.256L132.582 10.672L130.374 10.6L128.142 10.624L128.118 12.256L128.142 14.536L130.494 14.56L133.686 14.464ZM146.732 12.424L146.756 16H144.836L138.548 6.88H138.428L138.404 12.016L138.452 16H136.82L136.892 12.472L136.844 4.048H138.74L145.028 13.168H145.196L145.148 4.12L146.804 4L146.732 12.424ZM155.375 3.928C156.703 3.928 157.855 4.208 158.831 4.768L158.495 6.424L158.279 6.496C157.879 6.16 157.415 5.896 156.887 5.704C156.359 5.512 155.791 5.416 155.183 5.416C153.999 5.416 153.095 5.8 152.471 6.568C151.847 7.32 151.535 8.448 151.535 9.952C151.535 11.472 151.847 12.632 152.471 13.432C153.095 14.232 153.999 14.632 155.183 14.632C155.759 14.632 156.335 14.536 156.911 14.344C157.503 14.136 158.031 13.864 158.495 13.528L158.711 13.6L158.543 15.256C157.455 15.848 156.311 16.144 155.111 16.144C153.351 16.144 151.999 15.624 151.055 14.584C150.111 13.528 149.639 12.032 149.639 10.096C149.639 8.128 150.135 6.608 151.127 5.536C152.135 4.464 153.551 3.928 155.375 3.928ZM169.077 14.464L169.221 14.608L169.053 16H161.781L161.853 12.4L161.781 4.048H169.101L169.221 4.192L169.077 5.584L166.053 5.488L163.557 5.512L163.533 9.136L165.909 9.16L167.997 9.088L168.117 9.256L167.973 10.672L165.765 10.6L163.533 10.624L163.509 12.256L163.533 14.536L165.885 14.56L169.077 14.464Z" fill="#3312FF"/>
</svg>